<mxfile host="app.diagrams.net" modified="2023-09-27T13:37:40.385Z" agent="Mozilla/5.0 (Windows NT 10.0; Win64; x64) AppleWebKit/537.36 (KHTML, like Gecko) Chrome/116.0.0.0 Safari/537.36" etag="KD5LvZjMay95rzAhrDE1" version="21.7.5" type="google">
  <diagram name="Page-1" id="RaWs5UiYmvkNXziIM2es">
    <mxGraphModel grid="1" page="1" gridSize="10" guides="1" tooltips="1" connect="1" arrows="1" fold="1" pageScale="1" pageWidth="850" pageHeight="1100" math="0" shadow="0">
      <root>
        <mxCell id="0" />
        <mxCell id="1" parent="0" />
        <mxCell id="_s8IyUhzveNtiIXueol9-1" value="" style="swimlane;startSize=0;" vertex="1" parent="1">
          <mxGeometry x="280" y="40" width="320" height="600" as="geometry" />
        </mxCell>
        <mxCell id="_s8IyUhzveNtiIXueol9-2" value="&lt;h1 style=&quot;font-size: 13px;&quot;&gt;Library Management System&lt;/h1&gt;" style="text;html=1;strokeColor=#82b366;fillColor=#d5e8d4;spacing=5;spacingTop=-20;whiteSpace=wrap;overflow=hidden;rounded=0;align=center;" vertex="1" parent="_s8IyUhzveNtiIXueol9-1">
          <mxGeometry x="70" y="20" width="190" height="20" as="geometry" />
        </mxCell>
        <mxCell id="_s8IyUhzveNtiIXueol9-4" value="Verify User" style="ellipse;whiteSpace=wrap;html=1;" vertex="1" parent="_s8IyUhzveNtiIXueol9-1">
          <mxGeometry x="100" y="80" width="120" height="60" as="geometry" />
        </mxCell>
        <mxCell id="_s8IyUhzveNtiIXueol9-5" value="Book Issue" style="ellipse;whiteSpace=wrap;html=1;" vertex="1" parent="_s8IyUhzveNtiIXueol9-1">
          <mxGeometry x="100" y="230" width="120" height="60" as="geometry" />
        </mxCell>
        <mxCell id="_s8IyUhzveNtiIXueol9-6" value="Book Return" style="ellipse;whiteSpace=wrap;html=1;" vertex="1" parent="_s8IyUhzveNtiIXueol9-1">
          <mxGeometry x="100" y="360" width="120" height="60" as="geometry" />
        </mxCell>
        <mxCell id="_s8IyUhzveNtiIXueol9-7" value="Fine Calculation" style="ellipse;whiteSpace=wrap;html=1;" vertex="1" parent="_s8IyUhzveNtiIXueol9-1">
          <mxGeometry x="100" y="500" width="120" height="60" as="geometry" />
        </mxCell>
        <mxCell id="_s8IyUhzveNtiIXueol9-8" value="" style="endArrow=classic;html=1;rounded=0;entryX=0.5;entryY=1;entryDx=0;entryDy=0;exitX=0.5;exitY=0;exitDx=0;exitDy=0;" edge="1" parent="_s8IyUhzveNtiIXueol9-1" source="_s8IyUhzveNtiIXueol9-5" target="_s8IyUhzveNtiIXueol9-4">
          <mxGeometry width="50" height="50" relative="1" as="geometry">
            <mxPoint x="170" y="210" as="sourcePoint" />
            <mxPoint x="220" y="160" as="targetPoint" />
          </mxGeometry>
        </mxCell>
        <mxCell id="_s8IyUhzveNtiIXueol9-9" value="&lt;b&gt;&amp;lt;&amp;lt;include&amp;gt;&amp;gt;&lt;/b&gt;" style="text;html=1;align=center;verticalAlign=middle;resizable=0;points=[];autosize=1;strokeColor=none;fillColor=none;" vertex="1" parent="_s8IyUhzveNtiIXueol9-1">
          <mxGeometry x="160" y="168" width="90" height="30" as="geometry" />
        </mxCell>
        <mxCell id="_s8IyUhzveNtiIXueol9-17" value="" style="endArrow=classic;html=1;rounded=0;entryX=0.5;entryY=0;entryDx=0;entryDy=0;exitX=0.5;exitY=1;exitDx=0;exitDy=0;" edge="1" parent="_s8IyUhzveNtiIXueol9-1" source="_s8IyUhzveNtiIXueol9-6" target="_s8IyUhzveNtiIXueol9-7">
          <mxGeometry width="50" height="50" relative="1" as="geometry">
            <mxPoint x="240" y="520" as="sourcePoint" />
            <mxPoint x="240" y="430" as="targetPoint" />
          </mxGeometry>
        </mxCell>
        <mxCell id="_s8IyUhzveNtiIXueol9-18" value="&lt;b&gt;&amp;lt;&amp;lt;include&amp;gt;&amp;gt;&lt;/b&gt;" style="text;html=1;align=center;verticalAlign=middle;resizable=0;points=[];autosize=1;strokeColor=none;fillColor=none;" vertex="1" parent="_s8IyUhzveNtiIXueol9-1">
          <mxGeometry x="160" y="450" width="90" height="30" as="geometry" />
        </mxCell>
        <mxCell id="_s8IyUhzveNtiIXueol9-10" value="Student" style="shape=umlActor;verticalLabelPosition=bottom;verticalAlign=top;html=1;outlineConnect=0;" vertex="1" parent="1">
          <mxGeometry x="140" y="300" width="40" height="80" as="geometry" />
        </mxCell>
        <mxCell id="_s8IyUhzveNtiIXueol9-12" value="" style="endArrow=classic;html=1;rounded=0;exitX=1;exitY=0.3333333333333333;exitDx=0;exitDy=0;exitPerimeter=0;entryX=0;entryY=0;entryDx=0;entryDy=0;" edge="1" parent="1" source="_s8IyUhzveNtiIXueol9-10" target="_s8IyUhzveNtiIXueol9-6">
          <mxGeometry width="50" height="50" relative="1" as="geometry">
            <mxPoint x="400" y="330" as="sourcePoint" />
            <mxPoint x="450" y="280" as="targetPoint" />
            <Array as="points">
              <mxPoint x="370" y="360" />
            </Array>
          </mxGeometry>
        </mxCell>
        <mxCell id="_s8IyUhzveNtiIXueol9-13" value="" style="endArrow=classic;html=1;rounded=0;exitX=0.5;exitY=0.5;exitDx=0;exitDy=0;exitPerimeter=0;entryX=0;entryY=0;entryDx=0;entryDy=0;" edge="1" parent="1" source="_s8IyUhzveNtiIXueol9-10" target="_s8IyUhzveNtiIXueol9-5">
          <mxGeometry width="50" height="50" relative="1" as="geometry">
            <mxPoint x="400" y="330" as="sourcePoint" />
            <mxPoint x="450" y="280" as="targetPoint" />
            <Array as="points">
              <mxPoint x="250" y="280" />
            </Array>
          </mxGeometry>
        </mxCell>
        <mxCell id="_s8IyUhzveNtiIXueol9-14" value="" style="endArrow=classic;html=1;rounded=0;entryX=1;entryY=0.5;entryDx=0;entryDy=0;exitX=0;exitY=0.3333333333333333;exitDx=0;exitDy=0;exitPerimeter=0;" edge="1" parent="1" source="_s8IyUhzveNtiIXueol9-15" target="_s8IyUhzveNtiIXueol9-5">
          <mxGeometry width="50" height="50" relative="1" as="geometry">
            <mxPoint x="720" y="570" as="sourcePoint" />
            <mxPoint x="739.2307692307693" y="470" as="targetPoint" />
            <Array as="points">
              <mxPoint x="680" y="280" />
            </Array>
          </mxGeometry>
        </mxCell>
        <mxCell id="_s8IyUhzveNtiIXueol9-15" value="Librarian" style="shape=umlActor;verticalLabelPosition=bottom;verticalAlign=top;html=1;outlineConnect=0;" vertex="1" parent="1">
          <mxGeometry x="730" y="300" width="40" height="80" as="geometry" />
        </mxCell>
        <mxCell id="_s8IyUhzveNtiIXueol9-16" value="" style="endArrow=classic;html=1;rounded=0;entryX=1;entryY=0;entryDx=0;entryDy=0;exitX=0.5;exitY=0.5;exitDx=0;exitDy=0;exitPerimeter=0;" edge="1" parent="1" source="_s8IyUhzveNtiIXueol9-15" target="_s8IyUhzveNtiIXueol9-6">
          <mxGeometry width="50" height="50" relative="1" as="geometry">
            <mxPoint x="400" y="330" as="sourcePoint" />
            <mxPoint x="450" y="280" as="targetPoint" />
            <Array as="points">
              <mxPoint x="540" y="370" />
            </Array>
          </mxGeometry>
        </mxCell>
      </root>
    </mxGraphModel>
  </diagram>
</mxfile>
